<svg version="1" xmlns="http://www.w3.org/2000/svg" width="682.667" height="682.667" viewBox="0 0 512.000000 512.000000"><path d="M112.9 83.7c0 .4-.2 1.7-.4 2.8-.4 2.2-1.4 8.9-2.1 14.5-.2 1.9-.6 4.6-.9 6-.2 1.4-.7 4.5-1 7-.3 2.5-.8 5.6-1 7-.2 1.4-.7 4.5-1 7-.4 2.5-.8 5.6-1 7-.2 1.4-.9 6.1-1.5 10.5-1.1 8.3-1.5 10.8-3 21.5-.5 3.6-1.1 8.3-1.4 10.5-.7 5.3-3.4 24.2-4 28-.2 1.6-.7 5.2-1.1 8-.4 2.7-.8 6.6-1.1 8.5-.2 1.9-.9 6.2-1.4 9.5-.5 3.3-1.2 8-1.5 10.5-.3 2.5-.7 5.6-1 7-.3 1.4-.7 4.3-1 6.5-.2 2.2-1.8 13.7-3.5 25.5s-3.3 23.3-3.6 25.5c-.2 2.2-1.2 8.7-2 14.5-.8 5.8-1.7 12-2 13.7-.8 6.6-1.4 10.9-1.9 13.8-.3 1.6-.7 4.8-1 7-.3 2.2-.7 5.1-1 6.5-.2 1.4-.7 4.7-1 7.5-.6 4.7-.9 7.5-2.1 15.5-.2 1.9-1.4 10-2.5 18s-2.2 16-2.5 17.7l-.5 3.3h45.9l.7-5.8c.7-6.7 1.1-9.1 2.1-15.2.4-2.5.8-5.6.9-7 .1-1.4.5-4.3.9-6.5s.9-5.6 1.1-7.5c.8-6.4 1.7-13.5 2.1-15.5.2-1 .6-3.7.9-6 .3-2.2.8-5.6 1.1-7.5.2-1.9.7-5.1.9-7 .2-1.9.6-5.1.9-7 .3-1.9.8-5.3 1.1-7.5.3-2.3.7-5 .9-6 .2-1.1.7-4.9 1.2-8.5.4-3.6.8-6.7.9-7 .1-.3.5-3.4 1-7s.9-6.7 1-7c.1-.3.5-3.6.9-7.3.4-3.8 1.3-7 1.9-7.2.7-.3 26.8-.6 58.2-.8 31.4-.2 58.1-.7 59.5-1 1.3-.4 4.1-.9 6.1-1.2 2-.3 7.4-1.6 12-2.9 40.6-11.2 67.2-37.2 77-75.4 1.9-7.2 2.3-11.5 2.3-24.7.1-21.5-1.4-29.5-8.4-43.8-12.6-25.6-35.7-40.3-74.5-47.3-5.6-1-150.5-1.7-150.6-.7zM253 123.9c37 6.9 54.5 30.7 47.9 65.1-3.6 18.8-13.7 32.3-31.5 42.2-5.3 2.8-14.6 6.6-18.4 7.3-.3.1-2.5.5-5 .9-2.5.5-5.4 1.1-6.5 1.3-2.8.7-102.6 1-102.9.3-.2-.3.3-4.3 1-9s1.5-10.8 1.9-13.5c.4-2.8.9-6.1 1.1-7.5.2-1.4.6-4.3.8-6.5.3-2.2 1.2-9 2.1-15 .8-6.1 1.8-12.6 2-14.5.3-1.9.7-4.6 1-6 .2-1.4.7-4.8 1-7.5.7-5.7.7-5.9 3.5-24.8 1.1-7.7 2-14 2-14.1 0-.1 21-.1 46.8 0 31.5.1 48.8.5 53.2 1.3zM396.9 87.2c-.1 2.4-.3 5.2-.4 6.3-.1 1.1-.5 5.6-.9 10s-.9 9.1-1.1 10.5c-.2 1.4-.7 5.6-1 9.5-.3 3.8-.8 8.6-1 10.5-.3 1.9-.7 6.4-1 10-.3 3.6-.7 8.5-1 11-.2 2.5-.7 7.4-1 11-.4 3.6-.8 8.1-1 10-.2 1.9-.7 6.6-1.1 10.5-.3 3.8-.8 8.1-.9 9.5-.2 1.4-.6 6.1-1 10.5s-.9 8.7-1 9.5c-.2.9-.6 5.8-1 11s-.8 10.2-1 11.1c-.2.8-.6 5.5-1 10.5-.4 4.9-.9 9.7-1.1 10.8-.2 1-.6 5.3-1 9.4-.3 4.2-.7 8.4-.9 9.3-.2 1-.7 5.8-1 10.6-.4 4.8-.8 9.9-1.1 11.3-.2 1.4-.6 5.6-1 9.5-.3 3.8-.7 8.5-.9 10.2l-.3 3.3h16.4c14.9 0 16.4-.2 16.5-1.8 0-.9.2-2.4.4-3.2.2-.8.6-3.2 1-5.4.4-2.1.9-4.8 1.1-6 .2-1.1 1.5-8.2 2.9-15.6s2.7-14.4 2.9-15.5c1.1-5.6 3.6-19.4 4.1-22.5.3-1.9.8-4.3 1.1-5.3.3-1 .7-3 .9-4.5.2-1.5 2.4-13.5 4.9-26.7 2.5-13.2 4.7-25.1 4.9-26.5.3-1.4 2.4-12.6 4.7-25 2.3-12.4 4.4-23.6 4.6-25 .3-1.4 1.8-9.5 3.4-18 3.5-18.9 6.1-32.6 6.7-36.3l.4-2.7H397l-.1 4.2zM362.8 367.8c-3.6.2-5.8.8-5.9 1.5 0 .7-.2 2.1-.4 3.2s-.7 4.2-1 6.9c-.4 2.7-.8 5.6-1 6.5-.1.9-.6 3.8-.9 6.6-.7 5.2-3.2 22.5-4.2 28.3l-.5 3.2 27.3-.2 27.2-.3 1.8-12.5c1-6.9 2-14.5 2.3-17 .4-2.5 1-7 1.5-10s1.2-7.9 1.6-10.8l.6-5.2h-5.3c-3 0-12.6-.2-21.4-.3-8.8-.1-18.6-.1-21.7.1z"/></svg>